# xmcd CD database file
# Copyright (C) 1996 Ti Kan
#
# Track frame offsets:
# 	150
# 	14532
# 	27057
# 	40140
# 	56605
# 	71825
# 	83977
# 	99102
# 	111740
# 	131202
# 	143895
#
# Disc length: 2199 seconds
#
# Revision: 1
# Processed by: cddbd v1.4b41PL1 Copyright (c) Steve Scherf et al.
# Submitted via: DiscPlay 3.3.1
#
DISCID=9b08950b
DTITLE=The Highwaymen - The Road Goes On Forever
DYEAR=1900
DGENRE=
TTITLE0=The Devil's Right Hand
TTITLE1=Live Forever
TTITLE2=Everyone Gets Crazy
TTITLE3=It Is What It Is
TTITLE4=I Do Believe
TTITLE5=The End of Understanding
TTITLE6=True Love Travels A Gravel Road
TTITLE7=Death and Hell
TTITLE8=Waiting For A Long Time
TTITLE9=Here Comes That Rainbow Again
TTITLE10=The Road Goes On Forever
EXTD=
EXTT0=
EXTT1=
EXTT2=
EXTT3=
EXTT4=
EXTT5=
EXTT6=
EXTT7=
EXTT8=
EXTT9=
EXTT10=
PLAYORDER=
